<svg xmlns="http://www.w3.org/2000/svg" xmlns:xlink="http://www.w3.org/1999/xlink" width="43" zoomAndPan="magnify" viewBox="0 0 32.25 32.249998" height="43" preserveAspectRatio="xMidYMid meet" version="1.0"><defs><clipPath id="c3b9b3f5b9"><path d="M 0 4.726562 L 31.515625 4.726562 L 31.515625 26.714844 L 0 26.714844 Z M 0 4.726562 " clip-rule="nonzero"/></clipPath></defs><g clip-path="url(#c3b9b3f5b9)"><path fill="#000000" d="M 1.726562 4.78125 C 1.515625 4.777344 1.3125 4.816406 1.117188 4.890625 C 0.921875 4.96875 0.75 5.082031 0.601562 5.230469 C 0.453125 5.375 0.335938 5.546875 0.257812 5.738281 C 0.175781 5.933594 0.132812 6.132812 0.132812 6.34375 C 0.132812 6.550781 0.175781 6.753906 0.257812 6.945312 C 0.335938 7.140625 0.453125 7.308594 0.601562 7.457031 C 0.75 7.601562 0.921875 7.714844 1.117188 7.792969 C 1.3125 7.871094 1.515625 7.910156 1.726562 7.90625 L 29.949219 7.90625 C 30.160156 7.910156 30.359375 7.871094 30.554688 7.792969 C 30.75 7.714844 30.921875 7.601562 31.070312 7.457031 C 31.222656 7.308594 31.335938 7.140625 31.417969 6.945312 C 31.5 6.753906 31.539062 6.550781 31.539062 6.34375 C 31.539062 6.132812 31.5 5.933594 31.417969 5.738281 C 31.335938 5.546875 31.222656 5.375 31.070312 5.230469 C 30.921875 5.082031 30.75 4.96875 30.554688 4.890625 C 30.359375 4.816406 30.160156 4.777344 29.949219 4.78125 Z M 1.726562 14.160156 C 1.515625 14.15625 1.3125 14.191406 1.117188 14.269531 C 0.921875 14.347656 0.75 14.460938 0.601562 14.609375 C 0.453125 14.753906 0.335938 14.925781 0.257812 15.117188 C 0.175781 15.3125 0.132812 15.511719 0.132812 15.722656 C 0.132812 15.929688 0.175781 16.132812 0.257812 16.324219 C 0.335938 16.519531 0.453125 16.6875 0.601562 16.835938 C 0.75 16.980469 0.921875 17.09375 1.117188 17.171875 C 1.3125 17.25 1.515625 17.289062 1.726562 17.285156 L 29.949219 17.285156 C 30.160156 17.289062 30.359375 17.25 30.554688 17.171875 C 30.75 17.09375 30.921875 16.980469 31.070312 16.835938 C 31.222656 16.6875 31.335938 16.519531 31.417969 16.324219 C 31.5 16.132812 31.539062 15.929688 31.539062 15.722656 C 31.539062 15.511719 31.5 15.3125 31.417969 15.117188 C 31.335938 14.925781 31.222656 14.753906 31.070312 14.609375 C 30.921875 14.460938 30.75 14.347656 30.554688 14.269531 C 30.359375 14.191406 30.160156 14.15625 29.949219 14.160156 Z M 1.726562 23.539062 C 1.515625 23.535156 1.3125 23.570312 1.117188 23.648438 C 0.921875 23.726562 0.75 23.839844 0.601562 23.988281 C 0.453125 24.132812 0.335938 24.304688 0.257812 24.496094 C 0.175781 24.691406 0.132812 24.890625 0.132812 25.101562 C 0.132812 25.308594 0.175781 25.511719 0.257812 25.703125 C 0.335938 25.898438 0.453125 26.066406 0.601562 26.214844 C 0.75 26.359375 0.921875 26.472656 1.117188 26.550781 C 1.3125 26.628906 1.515625 26.667969 1.726562 26.664062 L 29.949219 26.664062 C 30.160156 26.667969 30.359375 26.628906 30.554688 26.550781 C 30.75 26.472656 30.921875 26.359375 31.070312 26.214844 C 31.222656 26.066406 31.335938 25.898438 31.417969 25.703125 C 31.5 25.511719 31.539062 25.308594 31.539062 25.101562 C 31.539062 24.890625 31.5 24.691406 31.417969 24.496094 C 31.335938 24.304688 31.222656 24.132812 31.070312 23.988281 C 30.921875 23.839844 30.75 23.726562 30.554688 23.648438 C 30.359375 23.570312 30.160156 23.535156 29.949219 23.539062 Z M 1.726562 23.539062 " fill-opacity="1" fill-rule="nonzero"/></g></svg>