<svg xmlns="http://www.w3.org/2000/svg" xmlns:xlink="http://www.w3.org/1999/xlink" width="43" zoomAndPan="magnify" viewBox="0 0 32.25 32.249998" height="43" preserveAspectRatio="xMidYMid meet" version="1.0"><defs><clipPath id="4d3d34d8ad"><path d="M 0.328125 0.328125 L 31.113281 0.328125 L 31.113281 31.113281 L 0.328125 31.113281 Z M 0.328125 0.328125 " clip-rule="nonzero"/></clipPath></defs><g clip-path="url(#4d3d34d8ad)"><path fill="#000000" d="M 29.445312 19.359375 L 22.183594 19.359375 L 23.3125 12.097656 L 29.445312 12.097656 C 29.652344 12.097656 29.855469 12.054688 30.050781 11.976562 C 30.242188 11.894531 30.414062 11.78125 30.5625 11.632812 C 30.710938 11.484375 30.824219 11.3125 30.90625 11.117188 C 30.988281 10.921875 31.027344 10.722656 31.027344 10.511719 C 31.027344 10.300781 30.988281 10.097656 30.90625 9.90625 C 30.824219 9.710938 30.710938 9.539062 30.5625 9.390625 C 30.414062 9.242188 30.242188 9.128906 30.050781 9.046875 C 29.855469 8.964844 29.652344 8.925781 29.445312 8.925781 L 23.808594 8.925781 L 24.839844 2.296875 C 24.871094 2.085938 24.863281 1.882812 24.8125 1.675781 C 24.761719 1.472656 24.675781 1.285156 24.550781 1.117188 C 24.425781 0.945312 24.277344 0.804688 24.097656 0.695312 C 23.917969 0.585938 23.722656 0.515625 23.515625 0.484375 C 23.308594 0.453125 23.101562 0.460938 22.894531 0.511719 C 22.691406 0.558594 22.503906 0.648438 22.335938 0.769531 C 22.164062 0.894531 22.027344 1.046875 21.917969 1.226562 C 21.808594 1.40625 21.738281 1.601562 21.703125 1.808594 L 20.597656 8.925781 L 13.039062 8.925781 L 14.070312 2.296875 C 14.101562 2.085938 14.09375 1.882812 14.046875 1.675781 C 13.996094 1.472656 13.910156 1.285156 13.785156 1.117188 C 13.660156 0.945312 13.507812 0.804688 13.328125 0.699219 C 13.148438 0.589844 12.957031 0.515625 12.746094 0.484375 C 12.539062 0.453125 12.332031 0.460938 12.128906 0.511719 C 11.925781 0.5625 11.738281 0.648438 11.570312 0.773438 C 11.398438 0.894531 11.257812 1.046875 11.148438 1.226562 C 11.039062 1.40625 10.96875 1.601562 10.9375 1.808594 L 9.828125 8.925781 L 2.066406 8.925781 C 1.859375 8.925781 1.65625 8.964844 1.460938 9.046875 C 1.269531 9.128906 1.097656 9.242188 0.949219 9.390625 C 0.800781 9.539062 0.6875 9.710938 0.605469 9.90625 C 0.523438 10.097656 0.484375 10.300781 0.484375 10.511719 C 0.484375 10.722656 0.523438 10.921875 0.605469 11.117188 C 0.6875 11.3125 0.800781 11.484375 0.949219 11.632812 C 1.097656 11.78125 1.269531 11.894531 1.460938 11.976562 C 1.65625 12.054688 1.859375 12.097656 2.066406 12.097656 L 9.335938 12.097656 L 8.207031 19.359375 L 2.066406 19.359375 C 1.855469 19.359375 1.65625 19.398438 1.460938 19.480469 C 1.265625 19.558594 1.09375 19.675781 0.945312 19.824219 C 0.796875 19.972656 0.683594 20.144531 0.601562 20.335938 C 0.523438 20.53125 0.480469 20.734375 0.480469 20.945312 C 0.480469 21.15625 0.523438 21.355469 0.601562 21.550781 C 0.683594 21.746094 0.796875 21.917969 0.945312 22.066406 C 1.09375 22.214844 1.265625 22.328125 1.460938 22.410156 C 1.65625 22.488281 1.855469 22.53125 2.066406 22.53125 L 7.714844 22.53125 L 6.671875 29.214844 C 6.640625 29.425781 6.648438 29.628906 6.699219 29.835938 C 6.75 30.039062 6.835938 30.226562 6.960938 30.394531 C 7.085938 30.566406 7.238281 30.703125 7.417969 30.8125 C 7.59375 30.921875 7.789062 30.992188 7.996094 31.027344 C 8.203125 31.058594 8.410156 31.050781 8.613281 31 C 8.820312 30.949219 9.007812 30.863281 9.175781 30.738281 C 9.347656 30.617188 9.484375 30.464844 9.59375 30.285156 C 9.703125 30.105469 9.773438 29.910156 9.808594 29.703125 L 10.921875 22.53125 L 18.480469 22.53125 L 17.441406 29.214844 C 17.410156 29.425781 17.417969 29.628906 17.46875 29.835938 C 17.515625 30.039062 17.605469 30.226562 17.726562 30.394531 C 17.851562 30.566406 18.003906 30.703125 18.183594 30.8125 C 18.363281 30.921875 18.554688 30.992188 18.765625 31.027344 C 18.972656 31.058594 19.179688 31.050781 19.382812 31 C 19.585938 30.949219 19.773438 30.863281 19.941406 30.738281 C 20.113281 30.617188 20.253906 30.464844 20.363281 30.285156 C 20.472656 30.105469 20.542969 29.910156 20.574219 29.703125 L 21.691406 22.53125 L 29.445312 22.53125 C 29.65625 22.53125 29.855469 22.488281 30.050781 22.410156 C 30.246094 22.328125 30.417969 22.214844 30.566406 22.066406 C 30.714844 21.917969 30.828125 21.746094 30.910156 21.550781 C 30.988281 21.355469 31.03125 21.15625 31.03125 20.945312 C 31.03125 20.734375 30.988281 20.53125 30.910156 20.335938 C 30.828125 20.144531 30.714844 19.972656 30.566406 19.824219 C 30.417969 19.675781 30.246094 19.558594 30.050781 19.480469 C 29.855469 19.398438 29.65625 19.359375 29.445312 19.359375 Z M 20.105469 12.097656 L 18.972656 19.359375 L 11.417969 19.359375 L 12.546875 12.097656 Z M 20.105469 12.097656 " fill-opacity="1" fill-rule="nonzero"/></g></svg>