<svg xmlns="http://www.w3.org/2000/svg" xmlns:xlink="http://www.w3.org/1999/xlink" width="43" zoomAndPan="magnify" viewBox="0 0 32.25 32.249998" height="43" preserveAspectRatio="xMidYMid meet" version="1.0"><defs><clipPath id="d7c2c01eab"><path d="M 0.441406 0.441406 L 31.222656 0.441406 L 31.222656 31.222656 L 0.441406 31.222656 Z M 0.441406 0.441406 " clip-rule="nonzero"/></clipPath></defs><g clip-path="url(#d7c2c01eab)"><path fill="#000000" d="M 28.808594 2.855469 L 28.808594 2.550781 C 28.808594 1.988281 28.589844 1.457031 28.191406 1.058594 C 27.792969 0.660156 27.261719 0.441406 26.695312 0.441406 C 25.53125 0.441406 24.585938 1.386719 24.585938 2.550781 L 24.585938 2.855469 L 23.375 2.855469 L 23.375 2.550781 C 23.375 1.988281 23.15625 1.457031 22.757812 1.058594 C 22.359375 0.660156 21.828125 0.441406 21.265625 0.441406 C 20.097656 0.441406 19.152344 1.386719 19.152344 2.550781 L 19.152344 2.855469 L 17.945312 2.855469 L 17.945312 2.550781 C 17.945312 1.988281 17.726562 1.457031 17.324219 1.058594 C 16.925781 0.660156 16.394531 0.441406 15.832031 0.441406 C 14.667969 0.441406 13.71875 1.386719 13.71875 2.550781 L 13.71875 2.855469 L 12.511719 2.855469 L 12.511719 2.550781 C 12.511719 1.988281 12.292969 1.457031 11.894531 1.058594 C 11.496094 0.660156 10.964844 0.441406 10.398438 0.441406 C 9.234375 0.441406 8.285156 1.386719 8.285156 2.550781 L 8.285156 2.855469 L 7.078125 2.855469 L 7.078125 2.550781 C 7.078125 1.988281 6.859375 1.457031 6.460938 1.058594 C 6.0625 0.660156 5.53125 0.441406 4.96875 0.441406 C 3.800781 0.441406 2.855469 1.386719 2.855469 2.550781 L 2.855469 2.855469 C 1.523438 2.855469 0.441406 3.9375 0.441406 5.269531 L 0.441406 28.808594 C 0.441406 30.140625 1.523438 31.222656 2.855469 31.222656 L 28.808594 31.222656 C 30.140625 31.222656 31.222656 30.140625 31.222656 28.808594 L 31.222656 5.269531 C 31.222656 3.9375 30.140625 2.855469 28.808594 2.855469 Z M 30.015625 28.808594 C 30.015625 29.476562 29.476562 30.015625 28.808594 30.015625 L 2.855469 30.015625 C 2.1875 30.015625 1.648438 29.476562 1.648438 28.808594 L 1.648438 9.492188 L 2.855469 9.492188 L 2.855469 28.207031 C 2.855469 28.539062 3.125 28.808594 3.457031 28.808594 L 28.207031 28.808594 C 28.539062 28.808594 28.808594 28.539062 28.808594 28.207031 L 28.808594 9.492188 L 30.015625 9.492188 Z M 4.0625 27.601562 L 4.0625 9.492188 L 27.601562 9.492188 L 27.601562 27.601562 Z M 30.015625 8.285156 L 1.648438 8.285156 L 1.648438 5.269531 C 1.648438 4.601562 2.1875 4.0625 2.855469 4.0625 L 2.855469 4.363281 C 2.855469 5.527344 3.800781 6.476562 4.96875 6.476562 C 6.132812 6.476562 7.078125 5.527344 7.078125 4.363281 L 7.078125 4.0625 L 8.285156 4.0625 L 8.285156 4.363281 C 8.285156 5.527344 9.234375 6.476562 10.398438 6.476562 C 11.5625 6.476562 12.511719 5.527344 12.511719 4.363281 L 12.511719 4.0625 L 13.71875 4.0625 L 13.71875 4.363281 C 13.71875 5.527344 14.667969 6.476562 15.832031 6.476562 C 16.996094 6.476562 17.945312 5.527344 17.945312 4.363281 L 17.945312 4.0625 L 19.152344 4.0625 L 19.152344 4.363281 C 19.152344 5.527344 20.097656 6.476562 21.265625 6.476562 C 22.429688 6.476562 23.375 5.527344 23.375 4.363281 L 23.375 4.0625 L 24.585938 4.0625 L 24.585938 4.363281 C 24.585938 5.527344 25.53125 6.476562 26.695312 6.476562 C 27.863281 6.476562 28.808594 5.527344 28.808594 4.363281 L 28.808594 4.0625 C 29.476562 4.0625 30.015625 4.601562 30.015625 5.269531 Z M 30.015625 8.285156 " fill-opacity="1" fill-rule="nonzero"/></g><path fill="#000000" d="M 18.140625 17.796875 C 19.117188 17.082031 19.753906 15.925781 19.753906 14.625 C 19.753906 12.460938 17.996094 10.699219 15.832031 10.699219 C 13.667969 10.699219 11.910156 12.460938 11.910156 14.625 C 11.910156 15.929688 12.546875 17.085938 13.527344 17.796875 C 11.339844 18.703125 9.796875 20.863281 9.796875 23.375 L 9.796875 25.792969 C 9.796875 26.125 10.066406 26.394531 10.398438 26.394531 L 21.265625 26.394531 C 21.597656 26.394531 21.867188 26.125 21.867188 25.792969 L 21.867188 23.375 C 21.867188 21.765625 21.238281 20.25 20.101562 19.109375 C 19.527344 18.539062 18.863281 18.09375 18.140625 17.796875 Z M 18.140625 17.796875 " fill-opacity="1" fill-rule="nonzero"/></svg>