<svg xmlns="http://www.w3.org/2000/svg" xmlns:xlink="http://www.w3.org/1999/xlink" width="43" zoomAndPan="magnify" viewBox="0 0 32.25 32.249998" height="43" preserveAspectRatio="xMidYMid meet" version="1.0"><defs><clipPath id="1990ac9222"><path d="M 0 0 L 31.515625 0 L 31.515625 31.515625 L 0 31.515625 Z M 0 0 " clip-rule="nonzero"/></clipPath></defs><g clip-path="url(#1990ac9222)"><path fill="#000000" d="M 15.71875 -0.0351562 C 15.375 -0.03125 15.042969 0.0390625 14.726562 0.175781 C 14.410156 0.3125 14.132812 0.503906 13.890625 0.753906 C 13.648438 1 13.464844 1.285156 13.339844 1.605469 C 13.210938 1.925781 13.148438 2.257812 13.152344 2.605469 L 13.152344 13.023438 L 2.734375 13.023438 C 2.386719 13.019531 2.050781 13.082031 1.726562 13.210938 C 1.402344 13.339844 1.117188 13.527344 0.871094 13.773438 C 0.621094 14.019531 0.429688 14.300781 0.296875 14.621094 C 0.160156 14.945312 0.09375 15.28125 0.09375 15.628906 C 0.09375 15.976562 0.160156 16.3125 0.296875 16.632812 C 0.429688 16.957031 0.621094 17.238281 0.871094 17.484375 C 1.117188 17.726562 1.402344 17.914062 1.726562 18.046875 C 2.050781 18.175781 2.386719 18.238281 2.734375 18.234375 L 13.152344 18.234375 L 13.152344 28.652344 C 13.148438 29 13.210938 29.335938 13.339844 29.660156 C 13.472656 29.984375 13.660156 30.269531 13.902344 30.519531 C 14.148438 30.765625 14.429688 30.957031 14.753906 31.09375 C 15.074219 31.226562 15.410156 31.292969 15.757812 31.292969 C 16.105469 31.292969 16.441406 31.226562 16.765625 31.09375 C 17.085938 30.957031 17.367188 30.765625 17.613281 30.519531 C 17.859375 30.269531 18.046875 29.984375 18.175781 29.660156 C 18.304688 29.335938 18.367188 29 18.363281 28.652344 L 18.363281 18.234375 L 28.78125 18.234375 C 29.128906 18.238281 29.464844 18.175781 29.789062 18.046875 C 30.113281 17.914062 30.398438 17.726562 30.648438 17.484375 C 30.894531 17.238281 31.085938 16.957031 31.222656 16.632812 C 31.355469 16.3125 31.425781 15.976562 31.425781 15.628906 C 31.425781 15.28125 31.355469 14.945312 31.222656 14.621094 C 31.085938 14.300781 30.894531 14.019531 30.648438 13.773438 C 30.398438 13.527344 30.113281 13.339844 29.789062 13.210938 C 29.464844 13.082031 29.128906 13.019531 28.78125 13.023438 L 18.363281 13.023438 L 18.363281 2.605469 C 18.367188 2.253906 18.304688 1.914062 18.171875 1.589844 C 18.039062 1.261719 17.847656 0.976562 17.601562 0.726562 C 17.351562 0.476562 17.0625 0.289062 16.738281 0.15625 C 16.410156 0.0234375 16.070312 -0.0390625 15.71875 -0.0351562 Z M 15.71875 -0.0351562 " fill-opacity="1" fill-rule="nonzero"/></g></svg>