<svg xmlns="http://www.w3.org/2000/svg" xmlns:xlink="http://www.w3.org/1999/xlink" width="43" zoomAndPan="magnify" viewBox="0 0 32.25 32.249998" height="43" preserveAspectRatio="xMidYMid meet" version="1.0"><defs><clipPath id="2f1d52e26b"><path d="M 23 11 L 31.515625 11 L 31.515625 20 L 23 20 Z M 23 11 " clip-rule="nonzero"/></clipPath></defs><path fill="#000000" d="M 5.402344 11.550781 C 4.414062 11.148438 3.429688 11.167969 2.457031 11.613281 C 1.023438 12.355469 0 13.835938 0 15.167969 C 0 16.714844 1.367188 18.410156 2.96875 18.894531 C 5.683594 19.699219 8.523438 16.882812 7.710938 14.195312 C 7.296875 13.011719 6.527344 12.128906 5.402344 11.550781 Z M 5.402344 11.550781 " fill-opacity="1" fill-rule="nonzero"/><path fill="#000000" d="M 14.054688 11.675781 C 13.511719 12 13.035156 12.402344 12.625 12.882812 C 9.953125 16.101562 14.246094 20.738281 17.75 18.386719 C 19.84375 16.992188 20.226562 14.449219 18.625 12.691406 C 17.300781 11.230469 15.636719 10.871094 14.054688 11.675781 Z M 14.054688 11.675781 " fill-opacity="1" fill-rule="nonzero"/><g clip-path="url(#2f1d52e26b)"><path fill="#000000" d="M 31.078125 13.835938 C 30.203125 11.761719 27.855469 10.722656 25.953125 11.550781 C 24.976562 12.003906 24.257812 12.71875 23.796875 13.6875 C 23.027344 15.550781 23.902344 17.667969 25.890625 18.683594 C 27.746094 19.617188 30.03125 18.707031 30.996094 16.652344 C 31.238281 16.21875 31.367188 15.75 31.382812 15.253906 C 31.394531 14.757812 31.296875 14.285156 31.078125 13.835938 Z M 31.078125 13.835938 " fill-opacity="1" fill-rule="nonzero"/></g></svg>